<svg width="16" height="20" viewBox="0 0 16 20" fill="none" xmlns="http://www.w3.org/2000/svg">
<path fill-rule="evenodd" clip-rule="evenodd" d="M6.96996 0.0545714C6.04564 0.154946 4.92647 0.51307 4.06056 0.98548C1.94793 2.13808 0.561087 4.08636 0.0869373 6.56795C-0.0174554 7.11426 -0.0310954 8.66147 0.0637936 9.19165C0.290355 10.4577 0.725653 11.5512 1.39741 12.5415C1.73787 13.0435 7.42038 19.8044 7.59676 19.9174C7.76837 20.0274 8.23104 20.0276 8.40241 19.9178C8.5784 19.8051 14.2627 13.0423 14.6024 12.5415C15.2741 11.5513 15.7094 10.4578 15.936 9.19165C16.0318 8.65642 16.0173 7.11469 15.9111 6.55659C15.5447 4.62992 14.5961 2.98806 13.1747 1.82054C11.4776 0.426608 9.2863 -0.197063 6.96996 0.0545714ZM8.65836 4.69C10.0842 4.9853 11.1497 6.27231 11.1497 7.69927C11.1497 9.4467 9.61055 10.8668 7.82756 10.7644C7.00482 10.7172 6.35936 10.4282 5.75078 9.83448C5.01668 9.11828 4.70282 8.06611 4.92184 7.05552C5.27826 5.41073 6.96932 4.34016 8.65836 4.69Z" fill="#F0552E"/>
</svg>
